<svg width="35" height="35" viewBox="0 0 35 35" fill="none" xmlns="http://www.w3.org/2000/svg">
<path d="M17.5 21.875C18.6603 21.875 19.7731 21.4141 20.5936 20.5936C21.4141 19.7731 21.875 18.6603 21.875 17.5C21.875 16.3397 21.4141 15.2269 20.5936 14.4064C19.7731 13.5859 18.6603 13.125 17.5 13.125C16.3397 13.125 15.2269 13.5859 14.4064 14.4064C13.5859 15.2269 13.125 16.3397 13.125 17.5C13.125 18.6603 13.5859 19.7731 14.4064 20.5936C15.2269 21.4141 16.3397 21.875 17.5 21.875Z" fill="#287562"/>
<path d="M0 8.75C0 8.16984 0.230468 7.61344 0.640704 7.2032C1.05094 6.79297 1.60734 6.5625 2.1875 6.5625H32.8125C33.3927 6.5625 33.9491 6.79297 34.3593 7.2032C34.7695 7.61344 35 8.16984 35 8.75V26.25C35 26.8302 34.7695 27.3866 34.3593 27.7968C33.9491 28.207 33.3927 28.4375 32.8125 28.4375H2.1875C1.60734 28.4375 1.05094 28.207 0.640704 27.7968C0.230468 27.3866 0 26.8302 0 26.25V8.75ZM6.5625 8.75C6.5625 9.91032 6.10156 11.0231 5.28109 11.8436C4.46062 12.6641 3.34782 13.125 2.1875 13.125V21.875C3.34782 21.875 4.46062 22.3359 5.28109 23.1564C6.10156 23.9769 6.5625 25.0897 6.5625 26.25H28.4375C28.4375 25.0897 28.8984 23.9769 29.7189 23.1564C30.5394 22.3359 31.6522 21.875 32.8125 21.875V13.125C31.6522 13.125 30.5394 12.6641 29.7189 11.8436C28.8984 11.0231 28.4375 9.91032 28.4375 8.75H6.5625Z" fill="#287562"/>
</svg>
