<svg width="29" height="29" viewBox="0 0 29 29" fill="none" xmlns="http://www.w3.org/2000/svg">
<path d="M4.83335 4.83335H9.67877V2.41669H2.41669V9.66669H4.83335V4.83335ZM4.83335 19.3334H2.41669V26.5834H9.67877V24.1667H4.83335V19.3334ZM24.1667 24.1667H19.3334V26.5834H26.5834V19.3334H24.1667V24.1667ZM19.3334 4.83335H24.1667V9.66669H26.5834V2.41669H19.3334V4.83335Z" fill="#287562"/>
<path d="M6.04169 13.2917H13.2917V6.04169H6.04169V13.2917ZM8.45835 8.45835H10.875V10.875H8.45835V8.45835ZM6.04169 22.9584H13.2917V15.7084H6.04169V22.9584ZM8.45835 18.125H10.875V20.5417H8.45835V18.125ZM22.9584 6.04169H15.7084V13.2917H22.9584V6.04169ZM20.5417 10.875H18.125V8.45835H20.5417V10.875ZM15.7204 15.7084H18.1371V18.125H15.7204V15.7084ZM18.1371 18.125H20.5538V20.5417H18.1371V18.125ZM20.5538 20.5417H22.9704V22.9584H20.5538V20.5417ZM20.5538 15.7084H22.9704V18.125H20.5538V15.7084Z" fill="#287562"/>
</svg>
